<svg xmlns="http://www.w3.org/2000/svg" xmlns:xlink="http://www.w3.org/1999/xlink" width="117" zoomAndPan="magnify" viewBox="0 0 87.75 54" height="72" preserveAspectRatio="xMidYMid meet" version="1.2"><defs><clipPath id="0cce13bd7d"><path d="M 9 27 L 18 27 L 18 37.261719 L 9 37.261719 Z M 9 27 "/></clipPath><clipPath id="11ec232831"><path d="M 21 27 L 29 27 L 29 37.261719 L 21 37.261719 Z M 21 27 "/></clipPath><clipPath id="fca7a8c30f"><path d="M 19 25 L 27 25 L 27 37.261719 L 19 37.261719 Z M 19 25 "/></clipPath><clipPath id="deafe178ea"><path d="M 11 25 L 19 25 L 19 37.261719 L 11 37.261719 Z M 11 25 "/></clipPath><clipPath id="f0e9ff957e"><path d="M 16 15.90625 L 22 15.90625 L 22 21 L 16 21 Z M 16 15.90625 "/></clipPath><clipPath id="756d571469"><path d="M 26 22 L 30.109375 22 L 30.109375 26 L 26 26 Z M 26 22 "/></clipPath><clipPath id="436000ce66"><path d="M 8.015625 22 L 12 22 L 12 26 L 8.015625 26 Z M 8.015625 22 "/></clipPath></defs><g id="c8e529f003"><g clip-rule="nonzero" clip-path="url(#0cce13bd7d)"><path style=" stroke:none;fill-rule:evenodd;fill:#5bbde2;fill-opacity:1;" d="M 17.035156 37.109375 C 17.035156 37.109375 14.851562 35.203125 10.246094 35.203125 L 10.246094 27.476562 C 10.246094 27.476562 9.222656 27.476562 9.222656 28.226562 C 9.222656 28.972656 9.222656 37.015625 9.222656 37.015625 C 9.222656 37.015625 12.972656 36.097656 17.035156 37.109375 Z M 17.035156 37.109375 "/></g><g clip-rule="nonzero" clip-path="url(#11ec232831)"><path style=" stroke:none;fill-rule:evenodd;fill:#5bbde2;fill-opacity:1;" d="M 21.09375 37.109375 C 21.09375 37.109375 23.277344 35.203125 27.882812 35.203125 L 27.882812 27.476562 C 27.882812 27.476562 28.902344 27.476562 28.902344 28.226562 C 28.902344 28.972656 28.902344 37.015625 28.902344 37.015625 C 28.902344 37.015625 25.152344 36.097656 21.09375 37.109375 Z M 21.09375 37.109375 "/></g><path style=" stroke:none;fill-rule:evenodd;fill:#f7a621;fill-opacity:1;" d="M 18.191406 26.136719 C 18.191406 26.136719 16.5625 25.449219 16.957031 24.171875 C 17.351562 22.894531 18.921875 22.273438 18.433594 20.679688 C 18.433594 20.679688 20.394531 21.164062 21.230469 23.097656 C 22.0625 25.035156 19.839844 26.199219 19.839844 26.199219 C 19.839844 26.199219 20.417969 25.402344 19.996094 24.875 C 19.574219 24.347656 19.238281 24.042969 19.386719 23.558594 C 19.386719 23.558594 17.234375 24.007812 18.191406 26.136719 Z M 18.191406 26.136719 "/><g clip-rule="nonzero" clip-path="url(#fca7a8c30f)"><path style=" stroke:none;fill-rule:evenodd;fill:#0878c0;fill-opacity:1;" d="M 19.574219 37.257812 C 19.574219 33.847656 23.929688 25.441406 26.8125 25.441406 L 26.8125 34.378906 C 26.8125 34.378906 22.445312 34.453125 19.574219 37.257812 Z M 19.574219 37.257812 "/></g><path style=" stroke:none;fill-rule:evenodd;fill:#5bbde2;fill-opacity:1;" d="M 18.894531 29.070312 C 18.667969 28.984375 18.503906 28.78125 18.503906 28.542969 C 18.503906 28.246094 18.75 28.003906 19.0625 27.976562 C 19.375 28.003906 19.621094 28.246094 19.621094 28.542969 C 19.621094 28.78125 19.460938 28.984375 19.230469 29.070312 L 19.230469 32.917969 C 19.9375 30.339844 21.011719 28.316406 21.011719 28.316406 C 20.148438 27.765625 20.023438 26.714844 20.023438 26.714844 L 19.0625 26.480469 L 18.101562 26.714844 C 18.101562 26.714844 17.976562 27.765625 17.113281 28.316406 C 17.113281 28.316406 18.1875 30.339844 18.894531 32.917969 Z M 18.894531 29.070312 "/><g clip-rule="nonzero" clip-path="url(#deafe178ea)"><path style=" stroke:none;fill-rule:evenodd;fill:#0878c0;fill-opacity:1;" d="M 18.550781 37.257812 C 18.550781 33.847656 14.195312 25.441406 11.3125 25.441406 L 11.3125 34.378906 C 11.3125 34.378906 15.679688 34.453125 18.550781 37.257812 Z M 18.550781 37.257812 "/></g><path style=" stroke:none;fill-rule:evenodd;fill:#0878c0;fill-opacity:1;" d="M 19.0625 24.683594 C 19.226562 24.683594 19.359375 24.816406 19.359375 24.984375 L 19.359375 25.894531 C 19.359375 26.0625 19.226562 26.199219 19.0625 26.199219 C 18.898438 26.199219 18.765625 26.0625 18.765625 25.894531 L 18.765625 24.984375 C 18.765625 24.816406 18.898438 24.683594 19.0625 24.683594 Z M 19.0625 24.683594 "/><g clip-rule="nonzero" clip-path="url(#f0e9ff957e)"><path style=" stroke:none;fill-rule:evenodd;fill:#f7a621;fill-opacity:1;" d="M 19.0625 15.90625 L 19.660156 17.394531 L 21.238281 17.515625 L 20.03125 18.554688 L 20.40625 20.113281 L 19.0625 19.269531 L 17.71875 20.113281 L 18.09375 18.554688 L 16.890625 17.515625 L 18.464844 17.394531 Z M 19.0625 15.90625 "/></g><path style=" stroke:none;fill-rule:evenodd;fill:#f7a621;fill-opacity:1;" d="M 26 18.394531 L 25.773438 19.6875 L 26.8125 20.46875 L 25.535156 20.652344 L 25.125 21.898438 L 24.558594 20.71875 L 23.269531 20.707031 L 24.199219 19.792969 L 23.808594 18.542969 L 24.949219 19.160156 Z M 26 18.394531 "/><g clip-rule="nonzero" clip-path="url(#756d571469)"><path style=" stroke:none;fill-rule:evenodd;fill:#f7a621;fill-opacity:1;" d="M 30.109375 23.015625 L 29.398438 23.949219 L 29.902344 25.011719 L 28.808594 24.613281 L 27.972656 25.429688 L 28.007812 24.25 L 26.984375 23.691406 L 28.101562 23.363281 L 28.304688 22.199219 L 28.957031 23.175781 Z M 30.109375 23.015625 "/></g><path style=" stroke:none;fill-rule:evenodd;fill:#f7a621;fill-opacity:1;" d="M 12.128906 18.394531 L 12.351562 19.6875 L 11.3125 20.46875 L 12.589844 20.652344 L 13 21.898438 L 13.566406 20.71875 L 14.855469 20.707031 L 13.929688 19.792969 L 14.316406 18.542969 L 13.175781 19.160156 Z M 12.128906 18.394531 "/><g clip-rule="nonzero" clip-path="url(#436000ce66)"><path style=" stroke:none;fill-rule:evenodd;fill:#f7a621;fill-opacity:1;" d="M 8.015625 23.015625 L 8.726562 23.949219 L 8.222656 25.011719 L 9.316406 24.613281 L 10.152344 25.429688 L 10.117188 24.25 L 11.140625 23.691406 L 10.027344 23.363281 L 9.820312 22.199219 L 9.167969 23.175781 Z M 8.015625 23.015625 "/></g><g style="fill:#ffffff;fill-opacity:1;"><g transform="translate(30.340887, 31.965425)"><path style="stroke:none" d="M 1.984375 -2.65625 L 1.984375 -1 L 4.859375 -1 L 4.859375 0 L 0.78125 0 L 0.78125 -6.03125 L 4.796875 -6.03125 L 4.796875 -5.03125 L 1.984375 -5.03125 L 1.984375 -3.625 L 4.4375 -3.625 L 4.4375 -2.65625 Z M 1.984375 -2.65625 "/></g><g transform="translate(35.526178, 31.965425)"><path style="stroke:none" d="M 2.953125 -6.03125 C 3.929688 -6.03125 4.675781 -5.773438 5.1875 -5.265625 C 5.707031 -4.765625 5.96875 -4.015625 5.96875 -3.015625 C 5.96875 -2.015625 5.707031 -1.257812 5.1875 -0.75 C 4.675781 -0.25 3.929688 0 2.953125 0 L 0.78125 0 L 0.78125 -6.03125 Z M 2.890625 -1 C 3.503906 -1 3.96875 -1.15625 4.28125 -1.46875 C 4.59375 -1.789062 4.75 -2.304688 4.75 -3.015625 C 4.75 -3.722656 4.59375 -4.234375 4.28125 -4.546875 C 3.96875 -4.867188 3.503906 -5.03125 2.890625 -5.03125 L 1.984375 -5.03125 L 1.984375 -1 Z M 2.890625 -1 "/></g><g transform="translate(41.97376, 31.965425)"><path style="stroke:none" d="M 3.203125 0.09375 C 2.367188 0.09375 1.75 -0.101562 1.34375 -0.5 C 0.945312 -0.894531 0.75 -1.484375 0.75 -2.265625 L 0.75 -6.03125 L 1.921875 -6.03125 L 1.921875 -2.265625 C 1.921875 -1.828125 2.023438 -1.5 2.234375 -1.28125 C 2.441406 -1.0625 2.765625 -0.953125 3.203125 -0.953125 C 4.054688 -0.953125 4.484375 -1.390625 4.484375 -2.265625 L 4.484375 -6.03125 L 5.65625 -6.03125 L 5.65625 -2.265625 C 5.65625 -1.484375 5.453125 -0.894531 5.046875 -0.5 C 4.648438 -0.101562 4.035156 0.09375 3.203125 0.09375 Z M 3.203125 0.09375 "/></g><g transform="translate(48.367714, 31.965425)"><path style="stroke:none" d="M 3.296875 0.09375 C 2.742188 0.09375 2.253906 -0.0195312 1.828125 -0.25 C 1.398438 -0.488281 1.066406 -0.835938 0.828125 -1.296875 C 0.585938 -1.765625 0.46875 -2.335938 0.46875 -3.015625 C 0.46875 -3.691406 0.585938 -4.257812 0.828125 -4.71875 C 1.066406 -5.1875 1.398438 -5.535156 1.828125 -5.765625 C 2.253906 -6.003906 2.742188 -6.125 3.296875 -6.125 C 3.878906 -6.125 4.375 -6.007812 4.78125 -5.78125 C 5.1875 -5.550781 5.472656 -5.207031 5.640625 -4.75 L 4.78125 -4.203125 L 4.671875 -4.21875 C 4.546875 -4.53125 4.367188 -4.753906 4.140625 -4.890625 C 3.921875 -5.023438 3.640625 -5.09375 3.296875 -5.09375 C 2.796875 -5.09375 2.40625 -4.925781 2.125 -4.59375 C 1.84375 -4.257812 1.703125 -3.734375 1.703125 -3.015625 C 1.703125 -2.296875 1.84375 -1.769531 2.125 -1.4375 C 2.40625 -1.101562 2.796875 -0.9375 3.296875 -0.9375 C 4.078125 -0.9375 4.554688 -1.320312 4.734375 -2.09375 L 4.84375 -2.09375 L 5.71875 -1.625 C 5.550781 -1.050781 5.269531 -0.617188 4.875 -0.328125 C 4.476562 -0.046875 3.953125 0.09375 3.296875 0.09375 Z M 3.296875 0.09375 "/></g><g transform="translate(54.283154, 31.965425)"><path style="stroke:none" d="M 5.796875 0 L 4.53125 0 L 4.078125 -1.390625 L 1.765625 -1.390625 L 1.3125 0 L 0.09375 0 L 2.171875 -6.03125 L 3.703125 -6.03125 Z M 2.875 -4.78125 L 2.09375 -2.390625 L 3.75 -2.390625 L 2.96875 -4.78125 Z M 2.875 -4.78125 "/></g></g><g style="fill:#ffffff;fill-opacity:1;"><g transform="translate(59.6252, 31.965425)"><path style="stroke:none" d="M 4.84375 -6.03125 L 4.84375 -5.03125 L 3.09375 -5.03125 L 3.09375 0 L 1.90625 0 L 1.90625 -5.03125 L 0.171875 -5.03125 L 0.171875 -6.03125 Z M 4.84375 -6.03125 "/></g><g transform="translate(64.62486, 31.965425)"><path style="stroke:none" d="M 1.984375 0 L 0.78125 0 L 0.78125 -6.03125 L 1.984375 -6.03125 Z M 1.984375 0 "/></g><g transform="translate(67.388699, 31.965425)"><path style="stroke:none" d="M 3.296875 0.09375 C 2.734375 0.09375 2.238281 -0.0195312 1.8125 -0.25 C 1.394531 -0.476562 1.066406 -0.820312 0.828125 -1.28125 C 0.585938 -1.75 0.46875 -2.328125 0.46875 -3.015625 C 0.46875 -3.703125 0.585938 -4.273438 0.828125 -4.734375 C 1.066406 -5.203125 1.394531 -5.550781 1.8125 -5.78125 C 2.238281 -6.007812 2.734375 -6.125 3.296875 -6.125 C 3.847656 -6.125 4.332031 -6.007812 4.75 -5.78125 C 5.164062 -5.5625 5.492188 -5.21875 5.734375 -4.75 C 5.972656 -4.28125 6.09375 -3.703125 6.09375 -3.015625 C 6.09375 -2.328125 5.972656 -1.75 5.734375 -1.28125 C 5.492188 -0.820312 5.164062 -0.476562 4.75 -0.25 C 4.332031 -0.0195312 3.847656 0.09375 3.296875 0.09375 Z M 3.296875 -0.953125 C 3.804688 -0.953125 4.191406 -1.113281 4.453125 -1.4375 C 4.722656 -1.769531 4.859375 -2.296875 4.859375 -3.015625 C 4.859375 -3.734375 4.722656 -4.257812 4.453125 -4.59375 C 4.191406 -4.925781 3.804688 -5.09375 3.296875 -5.09375 C 2.773438 -5.09375 2.378906 -4.925781 2.109375 -4.59375 C 1.835938 -4.257812 1.703125 -3.734375 1.703125 -3.015625 C 1.703125 -2.296875 1.835938 -1.769531 2.109375 -1.4375 C 2.378906 -1.113281 2.773438 -0.953125 3.296875 -0.953125 Z M 3.296875 -0.953125 "/></g><g transform="translate(73.960034, 31.965425)"><path style="stroke:none" d="M 1.9375 0 L 0.78125 0 L 0.78125 -6.03125 L 2.15625 -6.03125 L 4.578125 -2.140625 L 4.6875 -2.15625 L 4.6875 -6.03125 L 5.828125 -6.03125 L 5.828125 0 L 4.609375 0 L 2.046875 -4.15625 L 1.9375 -4.140625 Z M 1.9375 0 "/></g></g><g style="fill:#ffffff;fill-opacity:1;"><g transform="translate(80.584996, 31.965425)"><path style="stroke:none" d=""/></g></g></g></svg>